<svg width="752" height="92" viewBox="0 0 752 92" fill="none" xmlns="http://www.w3.org/2000/svg">
<path d="M225.617 55.3052C220.688 55.3052 216.643 51.3061 216.643 46.3303C216.643 41.4011 220.642 37.3555 225.617 37.3555C230.593 37.3555 234.592 41.3546 234.592 46.3303C234.592 51.3061 230.593 55.3052 225.617 55.3052Z" fill="#C56A32"/>
<path d="M268.584 55.3052C263.655 55.3052 259.609 51.3061 259.609 46.3303C259.609 41.4011 263.609 37.3555 268.584 37.3555C273.56 37.3555 277.559 41.3546 277.559 46.3303C277.559 51.3061 273.514 55.3052 268.584 55.3052Z" fill="#C56A32"/>
<path d="M311.551 55.3052C306.622 55.3052 302.576 51.3061 302.576 46.3303C302.576 41.4011 306.575 37.3555 311.551 37.3555C316.48 37.3555 320.526 41.3546 320.526 46.3303C320.526 51.3061 316.527 55.3052 311.551 55.3052Z" fill="#C56A32"/>
<path d="M354.516 55.3052C349.587 55.3052 345.541 51.3061 345.541 46.3303C345.541 41.4011 349.54 37.3555 354.516 37.3555C359.445 37.3555 363.491 41.3546 363.491 46.3303C363.491 51.3061 359.445 55.3052 354.516 55.3052Z" fill="#C56A32"/>
<path d="M397.483 55.3052C392.553 55.3052 388.508 51.3061 388.508 46.3303C388.508 41.4011 392.507 37.3555 397.483 37.3555C402.412 37.3555 406.458 41.3546 406.458 46.3303C406.411 51.3061 402.412 55.3052 397.483 55.3052Z" fill="#C56A32"/>
<path d="M440.45 55.3052C435.52 55.3052 431.475 51.3061 431.475 46.3303C431.475 41.4011 435.474 37.3555 440.45 37.3555C445.379 37.3555 449.424 41.3546 449.424 46.3303C449.424 51.3061 445.379 55.3052 440.45 55.3052Z" fill="#C56A32"/>
<path d="M483.416 55.3052C478.487 55.3052 474.441 51.3061 474.441 46.3303C474.441 41.4011 478.441 37.3555 483.416 37.3555C488.346 37.3555 492.391 41.3546 492.391 46.3303C492.345 51.3061 488.346 55.3052 483.416 55.3052Z" fill="#C56A32"/>
<path d="M526.383 55.3052C521.454 55.3052 517.408 51.3061 517.408 46.3303C517.408 41.4011 521.407 37.3555 526.383 37.3555C531.312 37.3555 535.358 41.3546 535.358 46.3303C535.358 51.3061 531.359 55.3052 526.383 55.3052Z" fill="#C56A32"/>
</svg>
